HIERARCHY
ROOT Hips
{
	OFFSET 0.00 0.00 0.00
	CHANNELS 6 Xposition Yposition Zposition Xrotation Yrotation Zrotation
	JOINT Spine
	{
		OFFSET 0.00000 2.10617 3.15926
		CHANNELS 3 Xrotation Yrotation Zrotation
		JOINT Spine1
		{
			OFFSET 0.00000 0.73147 4.14835
			CHANNELS 3 Xrotation Yrotation Zrotation
			JOINT Spine2
			{
				OFFSET 0.00000 0.36713 4.19631
				CHANNELS 3 Xrotation Yrotation Zrotation
				JOINT Spine3
				{
					OFFSET 0.00000 0.00000 4.21234
					CHANNELS 3 Xrotation Yrotation Zrotation
					JOINT Neck
					{
						OFFSET 0.00000 -1.57963 11.05740
						CHANNELS 3 Xrotation Yrotation Zrotation
						JOINT Head
						{
							OFFSET 0.00000 -1.00577 5.70398
							CHANNELS 3 Xrotation Yrotation Zrotation
							End Site
							{
								OFFSET 0.00000 0.00000 6.81873
							}
						}
					}
					JOINT RightShoulder
					{
						OFFSET -1.28113 -2.13522 6.91810
						CHANNELS 3 Xrotation Yrotation Zrotation
						JOINT RightArm
						{
							OFFSET -6.36294 -0.00000 0.00000
							CHANNELS 3 Xrotation Yrotation Zrotation
							JOINT RightForeArm
							{
								OFFSET -10.12221 -0.00000 0.00000
								CHANNELS 3 Xrotation Yrotation Zrotation
								JOINT RightHand
								{
									OFFSET -10.76713 -0.00000 0.00000
									CHANNELS 3 Xrotation Yrotation Zrotation
									JOINT RightHandEnd
									{
										OFFSET -2.78915 -0.00000 0.00000
										CHANNELS 3 Xrotation Yrotation Zrotation
										End Site
										{
											OFFSET -2.78915 -0.00000 0.00000
										}
									}
									JOINT RightHandThumb1
									{
										OFFSET -1.11566 -1.85944 -0.74377
										CHANNELS 3 Xrotation Yrotation Zrotation
										End Site
										{
											OFFSET -2.69412 -0.72189 0.00000
										}
									}
								}
							}
						}
					}
					JOINT LeftShoulder
					{
						OFFSET 1.28113 -2.13522 6.91810
						CHANNELS 3 Xrotation Yrotation Zrotation
						JOINT LeftArm
						{
							OFFSET 6.36294 0.00000 0.00000
							CHANNELS 3 Xrotation Yrotation Zrotation
							JOINT LeftForeArm
							{
								OFFSET 10.12221 0.00000 0.00000
								CHANNELS 3 Xrotation Yrotation Zrotation
								JOINT LeftHand
								{
									OFFSET 10.76713 0.00000 0.00000
									CHANNELS 3 Xrotation Yrotation Zrotation
									JOINT LeftHandEnd
									{
										OFFSET 2.78915 0.00000 0.00000
										CHANNELS 3 Xrotation Yrotation Zrotation
										End Site
										{
											OFFSET 2.78915 0.00000 0.00000
										}
									}
									JOINT LeftHandThumb1
									{
										OFFSET 1.11566 -1.85944 -0.74377
										CHANNELS 3 Xrotation Yrotation Zrotation
										End Site
										{
											OFFSET 2.69412 -0.72189 0.00000
										}
									}
								}
							}
						}
					}
				}
			}
		}
	}
	JOINT RightUpLeg
	{
		OFFSET -3.80068 0.00000 -1.11031
		CHANNELS 3 Xrotation Yrotation Zrotation
		JOINT RightLeg
		{
			OFFSET 0.00000 0.00000 -17.00167
			CHANNELS 3 Xrotation Yrotation Zrotation
			JOINT RightFoot
			{
				OFFSET 0.00000 0.00000 -17.96841
				CHANNELS 3 Xrotation Yrotation Zrotation
				JOINT RightToeBase
				{
					OFFSET 0.00000 -5.07501 -1.84715
					CHANNELS 3 Xrotation Yrotation Zrotation
					End Site
					{
						OFFSET 0.00000 -3.07471 0.00000
					}
				}
			}
		}
	}
	JOINT LeftUpLeg
	{
		OFFSET 3.80068 0.00000 -1.11031
		CHANNELS 3 Xrotation Yrotation Zrotation
		JOINT LeftLeg
		{
			OFFSET 0.00000 0.00000 -17.00167
			CHANNELS 3 Xrotation Yrotation Zrotation
			JOINT LeftFoot
			{
				OFFSET 0.00000 0.00000 -17.96841
				CHANNELS 3 Xrotation Yrotation Zrotation
				JOINT LeftToeBase
				{
					OFFSET 0.00000 -5.07501 -1.84715
					CHANNELS 3 Xrotation Yrotation Zrotation
					End Site
					{
						OFFSET 0.00000 -3.07471 0.00000
					}
				}
			}
		}
	}
}
MOTION
Frames: 15
Frame Time: 0.008342
 2.7825 -28.8164 37.7699 8.9634 -2.8800 -175.5020 7.3989 3.8569 -2.0894 3.2162 0.1217 -0.0843 3.8080 -3.6194 -0.9512 1.4098 -1.4361 1.5101 0.9241 -2.3526 1.6553 -7.4420 3.0184 3.1370 12.4590 -3.7044 6.5699 42.9037 -52.0153 45.5205 -0.0000 -0.0000 15.8401 -17.6854 5.5481 0.6259 -0.0000 -0.0000 0.0000 -0.0000 0.0000 0.0000 13.1997 8.5492 -13.9420 43.1882 39.5793 -48.2388 -0.0000 0.0000 -21.4045 -15.5929 -14.4650 3.9411 0.0000 -0.0000 -0.0000 0.0000 -0.0000 0.0000 -40.4768 2.4336 -1.8718 27.7885 0.0000 0.0000 -6.2144 -0.3501 -6.3537 -13.1609 0.0000 0.0000 -1.6306 3.8195 -6.4947 23.7684 -0.0000 0.0000 -18.3094 10.6096 14.5112 11.7681 0.0000 -0.0000
 2.7544 -28.8517 37.7669 8.5467 -2.8864 -175.7745 7.1738 3.7433 -2.0063 3.1044 0.0930 -0.0899 3.7884 -3.6684 -0.9213 1.3926 -1.4449 1.5175 0.7093 -2.2137 1.8157 -7.3569 3.0731 3.2306 12.4359 -3.5775 6.6218 42.6497 -51.7659 45.4762 -0.0000 0.0000 15.7202 -17.8243 5.5690 0.6045 -0.0000 -0.0000 0.0000 0.0000 -0.0000 0.0000 13.2439 8.6761 -13.9628 43.0964 39.7093 -48.1019 -0.0000 -0.0000 -21.5123 -15.5942 -14.4967 3.8824 0.0000 0.0000 -0.0000 0.0000 0.0000 -0.0000 -39.6987 2.1889 -1.1604 29.1346 0.0000 0.0000 -6.7418 -0.1303 -6.7926 -12.9972 -0.0000 0.0000 -2.0965 3.8771 -6.1952 23.7494 -0.0000 0.0000 -18.2501 10.5068 14.4689 11.6550 -0.0000 -0.0000
 2.7260 -28.8853 37.7652 8.1329 -2.8856 -176.0492 6.9501 3.6256 -1.9206 2.9952 0.0730 -0.0946 3.7715 -3.7177 -0.8940 1.3762 -1.4501 1.5199 0.4943 -2.0783 1.9790 -7.2666 3.1284 3.3252 12.4145 -3.4540 6.6829 42.4409 -51.4593 45.4965 0.0000 -0.0000 15.5703 -17.9215 5.5523 0.5709 -0.0000 0.0000 -0.0000 0.0000 -0.0000 -0.0000 13.2838 8.8104 -13.9797 42.9862 39.8381 -47.9162 -0.0000 0.0000 -21.6526 -15.6141 -14.5207 3.8116 -0.0000 0.0000 -0.0000 -0.0000 0.0000 -0.0000 -38.8584 1.9598 -0.5575 30.4269 0.0000 0.0000 -7.3146 0.0933 -7.1989 -12.8511 -0.0000 -0.0000 -2.5422 3.9292 -5.8737 23.7023 0.0000 -0.0000 -18.1884 10.4432 14.4124 11.5226 -0.0000 -0.0000
 2.6975 -28.9170 37.7647 7.7222 -2.8815 -176.3233 6.7298 3.5062 -1.8349 2.8870 0.0464 -0.0995 3.7560 -3.7565 -0.8677 1.3599 -1.4545 1.5195 0.2844 -1.9448 2.1449 -7.1728 3.1841 3.4188 12.3884 -3.3347 6.7509 42.2745 -51.1036 45.5697 -0.0000 -0.0000 15.3952 -17.9725 5.4978 0.5270 -0.0000 -0.0000 0.0000 0.0000 0.0000 0.0000 13.3221 8.9530 -13.9936 42.8613 39.9581 -47.6872 -0.0000 -0.0000 -21.8196 -15.6449 -14.5330 3.7279 -0.0000 -0.0000 0.0000 -0.0000 0.0000 -0.0000 -37.9546 1.7490 -0.0714 31.6559 0.0000 0.0000 -7.9273 0.3276 -7.5837 -12.7287 0.0000 -0.0000 -2.9707 3.9744 -5.5421 23.6341 -0.0000 -0.0000 -18.1281 10.4139 14.3483 11.3727 0.0000 -0.0000
 2.6691 -28.9472 37.7650 7.3054 -2.8773 -176.5949 6.5048 3.3805 -1.7486 2.7794 0.0192 -0.1044 3.7397 -3.7907 -0.8426 1.3433 -1.4575 1.5167 0.0816 -1.8116 2.3114 -7.0745 3.2397 3.5102 12.3541 -3.2194 6.8239 42.1449 -50.7065 45.6862 0.0000 -0.0000 15.1983 -17.9799 5.4070 0.4775 -0.0000 -0.0000 0.0000 -0.0000 -0.0000 0.0000 13.3568 9.1035 -14.0040 42.7272 40.0675 -47.4216 -0.0000 -0.0000 -22.0045 -15.6761 -14.5285 3.6270 0.0000 0.0000 -0.0000 -0.0000 -0.0000 0.0000 -36.9981 1.5591 0.2955 32.8149 0.0000 -0.0000 -8.5724 0.5776 -7.9609 -12.6332 0.0000 0.0000 -3.3968 4.0133 -5.2118 23.5542 -0.0000 0.0000 -18.0730 10.4106 14.2842 11.2073 -0.0000 -0.0000
 2.6408 -28.9762 37.7658 6.8807 -2.8755 -176.8634 6.2752 3.2463 -1.6606 2.6718 -0.0069 -0.1093 3.7200 -3.8234 -0.8181 1.3261 -1.4594 1.5120 -0.1116 -1.6770 2.4780 -6.9714 3.2947 3.5977 12.3117 -3.1066 6.9005 42.0453 -50.2743 45.8389 0.0000 0.0000 14.9821 -17.9492 5.2813 0.4284 -0.0000 -0.0000 0.0000 0.0000 -0.0000 0.0000 13.3856 9.2625 -14.0123 42.5885 40.1667 -47.1227 0.0000 -0.0000 -22.2013 -15.7079 -14.5044 3.5070 0.0000 0.0000 -0.0000 0.0000 -0.0000 -0.0000 -35.9916 1.3912 0.5428 33.8979 -0.0000 -0.0000 -9.2436 0.8480 -8.3437 -12.5636 0.0000 0.0000 -3.8253 4.0459 -4.8922 23.4682 -0.0000 -0.0000 -18.0250 10.4233 14.2273 11.0303 -0.0000 0.0000
 2.6131 -29.0041 37.7666 6.4427 -2.8795 -177.1267 6.0390 3.1045 -1.5736 2.5619 -0.0393 -0.1138 3.6946 -3.8511 -0.7933 1.3084 -1.4616 1.5079 -0.2941 -1.5397 2.6430 -6.8629 3.3500 3.6785 12.2553 -2.9951 6.9822 41.9712 -49.8187 46.0135 -0.0000 -0.0000 14.7527 -17.8848 5.1264 0.3785 -0.0000 -0.0000 0.0000 0.0000 -0.0000 -0.0000 13.4099 9.4303 -14.0186 42.4463 40.2535 -46.7962 0.0000 -0.0000 -22.4008 -15.7385 -14.4593 3.3616 0.0000 -0.0000 -0.0000 0.0000 0.0000 -0.0000 -34.9428 1.2449 0.6718 34.8998 -0.0000 0.0000 -9.9342 1.1421 -8.7443 -12.5174 0.0000 0.0000 -4.2673 4.0714 -4.5924 23.3856 0.0000 -0.0000 -17.9865 10.4421 14.1830 10.8458 -0.0000 0.0000
 2.5857 -29.0311 37.7673 5.9928 -2.8880 -177.3884 5.7979 2.9492 -1.4830 2.4513 -0.0645 -0.1171 3.6603 -3.8816 -0.7663 1.2903 -1.4608 1.5010 -0.4664 -1.4039 2.8047 -6.7485 3.4058 3.7533 12.1931 -2.8863 7.0714 41.9114 -49.3398 46.2051 -0.0000 0.0000 14.5117 -17.8041 4.9462 0.3356 -0.0000 -0.0000 0.0000 -0.0000 -0.0000 -0.0000 13.4222 9.6018 -14.0209 42.3096 40.3351 -46.4488 0.0000 -0.0000 -22.5949 -15.7753 -14.3937 3.1875 0.0000 -0.0000 -0.0000 0.0000 0.0000 -0.0000 -33.8531 1.1203 0.6914 35.8177 -0.0000 0.0000 -10.6403 1.4615 -9.1704 -12.4891 0.0000 -0.0000 -4.7216 4.0938 -4.3191 23.3074 0.0000 -0.0000 -17.9570 10.4562 14.1614 10.6593 -0.0000 0.0000
 2.5592 -29.0580 37.7673 5.5193 -2.9043 -177.6474 5.5441 2.7848 -1.3916 2.3369 -0.0907 -0.1217 3.6179 -3.9127 -0.7342 1.2707 -1.4622 1.4973 -0.6289 -1.2623 2.9624 -6.6268 3.4587 3.8166 12.1167 -2.7735 7.1696 41.8678 -48.8502 46.4054 0.0000 -0.0000 14.2622 -17.7177 4.7460 0.3004 -0.0000 0.0000 0.0000 0.0000 0.0000 0.0000 13.4298 9.7824 -14.0250 42.1695 40.4084 -46.0779 -0.0000 -0.0000 -22.7788 -15.8223 -14.3086 2.9876 0.0000 0.0000 0.0000 -0.0000 0.0000 -0.0000 -32.7378 1.0150 0.6066 36.6479 -0.0000 0.0000 -11.3556 1.8072 -9.6279 -12.4721 0.0000 0.0000 -5.2083 4.1105 -4.0750 23.2458 -0.0000 0.0000 -17.9385 10.4593 14.1627 10.4750 -0.0000 0.0000
 2.5336 -29.0848 37.7666 5.0264 -2.9283 -177.9063 5.2840 2.6134 -1.3012 2.2178 -0.1241 -0.1254 3.5650 -3.9389 -0.6947 1.2507 -1.4655 1.4982 -0.7843 -1.1192 3.1130 -6.4971 3.5102 3.8684 12.0272 -2.6582 7.2809 41.8337 -48.3538 46.6054 -0.0000 0.0000 14.0077 -17.6344 4.5306 0.2717 -0.0000 -0.0000 -0.0000 0.0000 0.0000 -0.0000 13.4326 9.9671 -14.0288 42.0293 40.4743 -45.6940 0.0000 -0.0000 -22.9417 -15.8931 -14.2052 2.7607 0.0000 0.0000 -0.0000 0.0000 -0.0000 -0.0000 -31.5952 0.9260 0.4281 37.3876 -0.0000 -0.0000 -12.0781 2.1794 -10.1183 -12.4605 0.0000 0.0000 -5.7250 4.1222 -3.8625 23.2039 0.0000 -0.0000 -17.9309 10.4464 14.1912 10.2972 -0.0000 0.0000
 2.5091 -29.1117 37.7651 4.5120 -2.9603 -178.1709 5.0157 2.4303 -1.2078 2.0952 -0.1525 -0.1264 3.5010 -3.9682 -0.6454 1.2302 -1.4678 1.5001 -0.9357 -0.9798 3.2555 -6.3578 3.5594 3.9101 11.9324 -2.5431 7.4114 41.8022 -47.8443 46.8035 -0.0000 0.0000 13.7483 -17.5740 4.3050 0.2497 -0.0000 -0.0000 0.0000 -0.0000 0.0000 -0.0000 13.4231 10.1532 -14.0293 41.8942 40.5401 -45.2998 -0.0000 -0.0000 -23.0779 -15.9932 -14.0865 2.5150 0.0000 0.0000 -0.0000 0.0000 -0.0000 0.0000 -30.4298 0.8478 0.1694 38.0323 -0.0000 0.0000 -12.8037 2.5777 -10.6397 -12.4464 -0.0000 -0.0000 -6.2749 4.1278 -3.6770 23.1836 0.0000 -0.0000 -17.9339 10.4165 14.2471 10.1299 0.0000 -0.0000
 2.4859 -29.1394 37.7625 3.9724 -2.9990 -178.4450 4.7374 2.2412 -1.1142 1.9674 -0.1836 -0.1286 3.4273 -3.9943 -0.5792 1.2091 -1.4739 1.5091 -1.0852 -0.8405 3.3894 -6.2085 3.6040 3.9372 11.8281 -2.4227 7.5624 41.7775 -47.3270 46.9994 0.0000 -0.0000 13.4829 -17.5433 4.0743 0.2346 -0.0000 -0.0000 0.0000 0.0000 -0.0000 0.0000 13.4103 10.3445 -14.0323 41.7522 40.6042 -44.8914 -0.0000 0.0000 -23.1835 -16.1357 -13.9553 2.2556 0.0000 0.0000 0.0000 0.0000 -0.0000 0.0000 -29.2486 0.7786 -0.1582 38.5793 0.0000 -0.0000 -13.5293 3.0004 -11.1858 -12.4272 -0.0000 -0.0000 -6.8650 4.1282 -3.5169 23.1892 0.0000 -0.0000 -17.9478 10.3713 14.3309 9.9778 -0.0000 0.0000
 2.4641 -29.1676 37.7591 3.4134 -3.0428 -178.7351 4.4547 2.0470 -1.0193 1.8352 -0.2169 -0.1285 3.3439 -4.0163 -0.4936 1.1880 -1.4815 1.5243 -1.2370 -0.7078 3.5126 -6.0481 3.6438 3.9516 11.7184 -2.3021 7.7377 41.7534 -46.7960 47.1894 -0.0000 -0.0000 13.2128 -17.5495 3.8407 0.2209 -0.0000 0.0000 0.0000 0.0000 0.0000 0.0000 13.3892 10.5361 -14.0341 41.6087 40.6707 -44.4771 0.0000 0.0000 -23.2506 -16.3260 -13.8136 1.9926 -0.0000 0.0000 -0.0000 0.0000 -0.0000 0.0000 -28.0463 0.7141 -0.5405 39.0224 0.0000 -0.0000 -14.2514 3.4451 -11.7494 -12.4003 0.0000 -0.0000 -7.4878 4.1228 -3.3762 23.2183 0.0000 -0.0000 -17.9721 10.3153 14.4416 9.8426 0.0000 -0.0000
 2.4432 -29.1968 37.7548 2.8309 -3.0856 -179.0487 4.1625 1.8517 -0.9233 1.7013 -0.2479 -0.1266 3.2507 -4.0351 -0.3832 1.1676 -1.4909 1.5467 -1.3943 -0.5844 3.6248 -5.8767 3.6786 3.9546 11.6090 -2.1818 7.9394 41.7273 -46.2437 47.3773 -0.0000 0.0000 12.9351 -17.5987 3.6077 0.2067 -0.0000 -0.0000 0.0000 0.0000 0.0000 0.0000 13.3616 10.7278 -14.0329 41.4598 40.7420 -44.0592 -0.0000 0.0000 -23.2738 -16.5694 -13.6627 1.7365 0.0000 0.0000 -0.0000 0.0000 0.0000 0.0000 -26.8305 0.6570 -0.9641 39.3590 -0.0000 -0.0000 -14.9661 3.9068 -12.3193 -12.3660 0.0000 0.0000 -8.1459 4.1170 -3.2497 23.2677 0.0000 -0.0000 -18.0056 10.2531 14.5797 9.7254 -0.0000 0.0000
 2.4240 -29.2263 37.7502 2.2336 -3.1361 -179.3892 3.8703 1.6503 -0.8277 1.5592 -0.2840 -0.1221 3.1557 -4.0463 -0.2436 1.1471 -1.5028 1.5766 -1.5596 -0.4719 3.7273 -5.6927 3.7074 3.9459 11.4903 -2.0661 8.1724 41.7024 -45.6716 47.5538 0.0000 -0.0000 12.6531 -17.6869 3.3792 0.1869 -0.0000 -0.0000 0.0000 0.0000 -0.0000 0.0000 13.3209 10.9237 -14.0316 41.3039 40.8238 -43.6263 -0.0000 0.0000 -23.2558 -16.8619 -13.5065 1.5025 -0.0000 0.0000 0.0000 -0.0000 0.0000 0.0000 -25.5859 0.5946 -1.4232 39.5718 0.0000 -0.0000 -15.6633 4.3800 -12.8891 -12.3261 0.0000 -0.0000 -8.8293 4.0972 -3.1305 23.3378 -0.0000 0.0000 -18.0509 10.1922 14.7378 9.6249 0.0000 -0.0000
